<?xml version="1.0" encoding="UTF-8" standalone="no"?><!DOCTYPE svg PUBLIC "-//W3C//DTD SVG 1.1//EN" "http://www.w3.org/Graphics/SVG/1.1/DTD/svg11.dtd"><svg width="100%" height="100%" viewBox="0 0 256 256" version="1.1" xmlns="http://www.w3.org/2000/svg" xmlns:xlink="http://www.w3.org/1999/xlink" xml:space="preserve" xmlns:serif="http://www.serif.com/" style="fill-rule:evenodd;clip-rule:evenodd;stroke-linejoin:round;stroke-miterlimit:2;"><g id="Bowler-Smaller" serif:id="Bowler Smaller"><path d="M384.773,41.96l0.77,0.004l0.767,0.006l0.763,0.008l0.76,0.011l0.757,0.014l0.753,0.015l0.749,0.018l0.746,0.021l0.742,0.023l0.739,0.025l0.735,0.027l0.732,0.03l0.728,0.033l0.725,0.034l0.721,0.037l0.718,0.039l0.715,0.042l0.711,0.044l0.707,0.046l0.704,0.048l0.701,0.051l0.697,0.053l0.693,0.055l0.691,0.058l0.686,0.059l0.684,0.062l0.68,0.064l0.676,0.067l0.673,0.068l0.67,0.071l0.666,0.073l0.663,0.075l0.66,0.077l0.656,0.079l0.652,0.082l0.65,0.084l0.646,0.085l0.642,0.088l0.639,0.09l0.636,0.093l0.632,0.094l0.629,0.096l0.626,0.099l0.623,0.1l0.619,0.103l0.615,0.104l0.613,0.107l0.609,0.108l0.605,0.111l0.603,0.113l0.599,0.115l0.595,0.116l0.593,0.119l0.589,0.121l0.586,0.122l0.582,0.125l0.579,0.126l0.576,0.129l0.573,0.13l0.569,0.133l0.566,0.134l0.563,0.136l0.559,0.138l0.557,0.14l0.553,0.142l0.549,0.144l0.547,0.146l0.543,0.147l0.54,0.149l0.537,0.152l0.534,0.153l0.53,0.154l0.527,0.157l0.524,0.158l0.521,0.161l0.517,0.162l0.514,0.164l0.511,0.165l0.508,0.167l0.505,0.17l0.501,0.17l0.499,0.173l0.495,0.174l0.492,0.176l0.489,0.178l0.485,0.179l0.483,0.181l0.479,0.183l0.476,0.185l0.473,0.186l0.47,0.187l0.467,0.19l0.463,0.191l0.461,0.193l0.457,0.194l0.454,0.196l0.452,0.197l0.448,0.199l0.445,0.201l0.441,0.202l0.439,0.204l0.436,0.206l0.432,0.206l0.43,0.209l0.426,0.21l0.423,0.211l0.42,0.214l0.418,0.214l0.414,0.216l0.411,0.218l0.408,0.219l0.405,0.22l0.401,0.222l0.399,0.223l0.396,0.225l0.393,0.227l0.39,0.227l0.386,0.229l0.384,0.231l0.381,0.232l0.377,0.233l0.375,0.235l0.372,0.236l0.368,0.237l0.366,0.239l0.363,0.24l0.36,0.242l0.356,0.243l0.354,0.244l0.351,0.245l0.348,0.247l0.345,0.248l0.342,0.249l0.339,0.251l0.336,0.252l0.333,0.253l0.33,0.254l0.327,0.256l0.324,0.257l0.322,0.258l0.318,0.259l0.316,0.26l0.312,0.262l0.31,0.263l0.307,0.264l0.304,0.265l0.301,0.267l0.298,0.267l0.295,0.269l0.293,0.27l0.289,0.271l0.287,0.272l0.283,0.273l0.281,0.274l0.278,0.275l0.276,0.277l0.272,0.277l0.27,0.279l0.266,0.28l0.264,0.28l0.261,0.282l0.258,0.283l0.256,0.283l0.252,0.285l0.25,0.286l0.247,0.287l0.244,0.288l0.241,0.288l0.239,0.29l0.235,0.291l0.233,0.291l0.231,0.293l0.227,0.293l0.225,0.295l0.221,0.295l0.219,0.296l0.217,0.298l0.213,0.298l0.211,0.299l0.208,0.299l0.206,0.301l0.202,0.301l0.2,0.303l0.197,0.303l0.195,0.304l0.191,0.305l0.189,0.305l0.187,0.307l0.183,0.307l0.181,0.308l0.178,0.309l0.176,0.309l0.172,0.311l0.17,0.311l0.168,0.312l0.165,0.312l0.162,0.313l0.159,0.314l0.157,0.315l0.154,0.315l0.151,0.316l0.149,0.317l0.146,0.318l0.144,0.318l0.141,0.318l0.138,0.32l0.136,0.32l0.133,0.32l0.13,0.321l0.128,0.322l0.125,0.323l0.123,0.323l0.12,0.323l0.117,0.324l0.115,0.325l0.112,0.325l0.11,0.326l0.107,0.327l0.104,0.327l0.102,0.327l0.099,0.328l0.097,0.328l0.094,0.329l0.092,0.33l0.089,0.33l0.087,0.33l0.084,0.331l0.081,0.331l0.079,0.332l0.077,0.332l0.074,0.332l0.071,0.333l0.069,0.334l0.066,0.333l0.064,0.335l0.062,0.334l0.059,0.335l0.056,0.335l0.054,0.336l0.052,0.336l0.049,0.336l0.046,0.337l0.044,0.337l0.042,0.337l0.039,0.337l0.037,0.338l0.034,0.338l0.032,0.339l0.029,0.338l0.027,0.339l0.025,0.339l0.022,0.34l0.019,0.339l0.018,0.34l0.015,0.34l0.039,0l0,79.251l0.478,0.069l0.476,0.07l0.473,0.071l0.469,0.071l0.467,0.071l0.464,0.072l0.461,0.073l0.457,0.073l0.455,0.074l0.452,0.074l0.449,0.075l0.445,0.075l0.443,0.076l0.439,0.076l0.437,0.078l0.433,0.077l0.43,0.078l0.427,0.079l0.424,0.079l0.421,0.08l0.417,0.081l0.414,0.081l0.412,0.081l0.408,0.082l0.404,0.083l0.402,0.083l0.398,0.084l0.395,0.084l0.392,0.085l0.388,0.086l0.385,0.086l0.382,0.087l0.379,0.087l0.375,0.088l0.372,0.088l0.368,0.089l0.365,0.09l0.362,0.09l0.358,0.09l0.355,0.092l0.351,0.092l0.349,0.092l0.344,0.093l0.341,0.094l0.338,0.094l0.334,0.095l0.331,0.095l0.327,0.096l0.324,0.097l0.32,0.097l0.316,0.098l0.313,0.098l0.31,0.099l0.306,0.1l0.302,0.1l0.298,0.101l0.295,0.101l0.292,0.102l0.288,0.103l0.284,0.103l0.28,0.104l0.277,0.104l0.273,0.105l0.269,0.106l0.266,0.106l0.262,0.107l0.258,0.107l0.254,0.108l0.251,0.109l0.246,0.109l0.243,0.11l0.24,0.11l0.235,0.112l0.231,0.111l0.228,0.113l0.224,0.113l0.22,0.113l0.216,0.114l0.212,0.115l0.208,0.116l0.205,0.116l0.2,0.116l0.196,0.118l0.193,0.118l0.188,0.118l0.185,0.119l0.18,0.12l0.177,0.121l0.172,0.121l0.169,0.121l0.164,0.123l0.16,0.123l0.079,0.061l0.078,0.062l0.076,0.062l0.076,0.063l0.074,0.062l0.074,0.062l0.072,0.063l0.072,0.063l0.07,0.063l0.07,0.063l0.068,0.063l0.067,0.064l0.067,0.064l0.065,0.063l0.064,0.064l0.063,0.065l0.062,0.064l0.062,0.064l0.06,0.065l0.059,0.065l0.058,0.065l0.056,0.065l0.056,0.065l0.055,0.065l0.054,0.066l0.052,0.066l0.052,0.066l0.051,0.066l0.049,0.066l0.048,0.066l0.048,0.067l0.046,0.066l0.045,0.067l0.044,0.067l0.043,0.068l0.042,0.067l0.041,0.067l0.04,0.068l0.039,0.068l0.038,0.068l0.036,0.068l0.036,0.069l0.034,0.068l0.034,0.069l0.032,0.069l0.031,0.069l0.03,0.069l0.029,0.069l0.028,0.07l0.027,0.069l0.026,0.07l0.024,0.07l0.024,0.07l0.022,0.07l0.021,0.071l0.021,0.071l0.019,0.07l0.018,0.071l0.017,0.072l0.015,0.071l0.015,0.071l0.014,0.072l0.012,0.072l0.011,0.072l0.01,0.072l0.01,0.072l0.007,0.073l0.007,0.072l0.006,0.073l0.005,0.073l0.003,0.073l0.002,0.074l0.002,0.089l0.001,0.088l0,0.089l-0.001,0.089l-0.002,0.088l-0.002,0.088l-0.003,0.088l-0.004,0.088l-0.005,0.088l-0.006,0.088l-0.007,0.087l-0.007,0.088l-0.009,0.087l-0.009,0.087l-0.01,0.087l-0.011,0.087l-0.011,0.087l-0.013,0.087l-0.013,0.086l-0.014,0.087l-0.016,0.086l-0.015,0.086l-0.017,0.086l-0.018,0.086l-0.018,0.085l-0.02,0.086l-0.02,0.085l-0.021,0.086l-0.022,0.085l-0.022,0.085l-0.024,0.085l-0.025,0.084l-0.025,0.085l-0.026,0.084l-0.027,0.085l-0.028,0.084l-0.029,0.084l-0.029,0.084l-0.031,0.083l-0.031,0.084l-0.032,0.083l-0.033,0.084l-0.034,0.083l-0.035,0.083l-0.036,0.083l-0.036,0.083l-0.038,0.082l-0.038,0.083l-0.039,0.082l-0.04,0.082l-0.041,0.082l-0.042,0.082l-0.043,0.082l-0.043,0.082l-0.045,0.081l-0.045,0.081l-0.046,0.082l-0.047,0.081l-0.048,0.08l-0.049,0.081l-0.05,0.081l-0.05,0.08l-0.052,0.081l-0.052,0.08l-0.054,0.08l-0.054,0.08l-0.055,0.08l-0.056,0.079l-0.057,0.08l-0.057,0.079l-0.059,0.079l-0.059,0.079l-0.061,0.079l-0.061,0.079l-0.062,0.078l-0.063,0.079l-0.064,0.078l-0.065,0.078l-0.066,0.078l-0.067,0.078l-0.067,0.078l-0.069,0.078l-0.069,0.077l-0.07,0.077l-0.072,0.077l-0.072,0.077l-0.073,0.077l-0.074,0.077l-0.075,0.076l-0.075,0.077l-0.155,0.152l-0.157,0.152l-0.162,0.151l-0.165,0.151l-0.169,0.15l-0.173,0.149l-0.176,0.149l-0.18,0.148l-0.184,0.147l-0.187,0.147l-0.191,0.147l-0.195,0.145l-0.198,0.145l-0.203,0.145l-0.206,0.144l-0.21,0.143l-0.213,0.143l-0.217,0.142l-0.221,0.141l-0.225,0.141l-0.229,0.14l-0.232,0.14l-0.237,0.139l-0.24,0.138l-0.244,0.138l-0.247,0.137l-0.252,0.136l-0.255,0.136l-0.26,0.135l-0.263,0.135l-0.267,0.133l-0.271,0.134l-0.274,0.132l-0.279,0.132l-0.283,0.132l-0.286,0.13l-0.29,0.13l-0.294,0.13l-0.299,0.129l-0.302,0.128l-0.306,0.127l-0.31,0.127l-0.314,0.126l-0.318,0.126l-0.321,0.125l-0.326,0.124l-0.33,0.123l-0.334,0.123l-0.338,0.123l-0.341,0.121l-0.346,0.121l-0.35,0.12l-0.354,0.12l-0.358,0.119l-0.362,0.118l-0.365,0.118l-0.37,0.117l-0.375,0.116l-0.378,0.116l-0.382,0.114l-0.386,0.115l-0.391,0.113l-0.394,0.113l-0.399,0.112l-0.402,0.112l-0.407,0.111l-0.411,0.11l-0.415,0.109l-0.419,0.109l-0.424,0.108l-0.427,0.108l-0.432,0.106l-0.436,0.106l-0.44,0.106l-0.444,0.104l-0.448,0.104l-0.453,0.104l-0.457,0.102l-0.461,0.102l-0.465,0.101l-0.47,0.101l-0.473,0.099l-0.478,0.099l-0.482,0.099l-0.487,0.097l-0.491,0.097l-0.495,0.097l-0.499,0.095l-0.503,0.095l-0.508,0.094l-0.512,0.093l-0.517,0.093l-0.521,0.092l-0.525,0.091l-0.529,0.09l-0.534,0.09l-0.538,0.089l-0.543,0.089l-0.546,0.087l-0.552,0.087l-0.555,0.086l-0.56,0.086l-0.565,0.084l-0.568,0.084l-0.573,0.083l-0.578,0.083l-0.582,0.082l-0.586,0.08l-0.591,0.081l-0.596,0.079l-0.599,0.079l-0.604,0.078l-0.609,0.077l-0.613,0.077l-0.618,0.076l-0.622,0.075l-0.626,0.074l-0.631,0.073l-0.636,0.073l-0.64,0.072l-0.645,0.071l-0.649,0.071l-0.653,0.07l-0.659,0.069l-0.662,0.068l-0.668,0.067l-0.672,0.067l-0.676,0.066l-0.681,0.065l-0.686,0.065l-0.69,0.063l-0.695,0.063l-0.699,0.062l-0.704,0.061l-0.709,0.061l-0.713,0.06l-0.718,0.059l-0.723,0.058l-0.727,0.057l-0.732,0.057l-0.736,0.056l-0.741,0.055l-0.746,0.054l-0.751,0.054l-0.755,0.052l-0.76,0.052l-0.765,0.051l-0.769,0.051l-0.774,0.049l-0.779,0.049l-0.784,0.048l-0.788,0.047l-0.793,0.046l-0.798,0.046l-0.803,0.045l-0.807,0.044l-0.812,0.043l-0.817,0.042l-0.822,0.042l-0.827,0.04l-0.831,0.04l-0.836,0.039l-0.841,0.039l-0.846,0.037l-0.851,0.037l-0.855,0.036l-0.861,0.035l-0.865,0.034l-0.87,0.033l-0.875,0.033l-0.88,0.031l-0.885,0.031l-0.89,0.03l-0.894,0.03l-0.9,0.028l-0.904,0.028l-0.91,0.026l-0.914,0.026l-0.919,0.025l-0.925,0.025l-0.929,0.023l-0.934,0.023l-0.939,0.021l-0.944,0.021l-0.949,0.02l-0.954,0.019l-0.959,0.019l-0.964,0.017l-0.969,0.017l-0.975,0.016l-0.979,0.015l-0.984,0.014l-0.989,0.013l-0.994,0.012l-1,0.012l-1.004,0.011l-1.01,0.009l-1.014,0.009l-1.02,0.009l-1.025,0.007l-1.029,0.006l-1.035,0.006l-1.041,0.004l-1.045,0.004l-1.05,0.003l-1.056,0.002l-1.06,0.001l-1.066,0l-1.071,0l-1.076,-0.002l-1.081,-0.002l-2.125,-0.007l-2.105,-0.009l-2.086,-0.013l-2.065,-0.015l-2.046,-0.018l-2.027,-0.021l-1.005,-0.011l-1.001,-0.012l-0.997,-0.013l-0.991,-0.013l-0.986,-0.015l-0.982,-0.014l-0.976,-0.016l-0.972,-0.016l-0.967,-0.017l-0.963,-0.018l-0.957,-0.018l-0.952,-0.019l-0.948,-0.02l-0.943,-0.021l-0.938,-0.021l-0.934,-0.022l-0.928,-0.022l-0.924,-0.023l-0.919,-0.024l-0.914,-0.025l-0.91,-0.025l-0.904,-0.026l-0.9,-0.027l-0.896,-0.028l-0.89,-0.028l-0.886,-0.029l-0.881,-0.029l-0.876,-0.03l-0.872,-0.031l-0.867,-0.032l-0.862,-0.032l-0.857,-0.034l-0.853,-0.033l-0.848,-0.035l-0.844,-0.035l-0.839,-0.036l-0.834,-0.037l-0.829,-0.037l-0.825,-0.038l-0.82,-0.039l-0.816,-0.039l-0.811,-0.04l-0.806,-0.041l-0.801,-0.042l-0.798,-0.042l-0.792,-0.043l-0.788,-0.044l-0.783,-0.044l-0.779,-0.045l-0.774,-0.046l-0.769,-0.047l-0.765,-0.047l-0.761,-0.048l-0.755,-0.049l-0.752,-0.049l-0.746,-0.05l-0.743,-0.051l-0.737,-0.052l-0.733,-0.052l-0.729,-0.053l-0.724,-0.054l-0.719,-0.054l-0.716,-0.055l-0.71,-0.056l-0.706,-0.057l-0.702,-0.057l-0.697,-0.058l-0.692,-0.059l-0.689,-0.059l-0.683,-0.06l-0.68,-0.061l-0.674,-0.062l-0.671,-0.062l-0.666,-0.063l-0.661,-0.064l-0.657,-0.065l-0.653,-0.065l-0.648,-0.066l-0.644,-0.066l-0.64,-0.068l-0.635,-0.068l-0.63,-0.069l-0.627,-0.069l-0.622,-0.07l-0.617,-0.071l-0.613,-0.072l-0.609,-0.073l-0.605,-0.073l-0.6,-0.074l-0.596,-0.074l-0.591,-0.076l-0.587,-0.076l-0.583,-0.077l-0.579,-0.077l-0.574,-0.078l-0.57,-0.079l-0.566,-0.08l-0.561,-0.081l-0.557,-0.081l-0.553,-0.082l-0.548,-0.082l-0.545,-0.084l-0.54,-0.084l-0.535,-0.085l-0.532,-0.085l-0.527,-0.086l-0.523,-0.087l-0.519,-0.088l-0.515,-0.089l-0.51,-0.089l-0.506,-0.09l-0.502,-0.091l-0.498,-0.091l-0.494,-0.092l-0.489,-0.093l-0.485,-0.094l-0.481,-0.094l-0.477,-0.095l-0.473,-0.096l-0.469,-0.097l-0.464,-0.097l-0.46,-0.098l-0.457,-0.099l-0.452,-0.099l-0.448,-0.101l-0.443,-0.101l-0.44,-0.101l-0.436,-0.103l-0.431,-0.103l-0.428,-0.104l-0.423,-0.105l-0.419,-0.105l-0.416,-0.106l-0.411,-0.107l-0.407,-0.108l-0.403,-0.109l-0.399,-0.109l-0.395,-0.11l-0.391,-0.11l-0.387,-0.112l-0.382,-0.112l-0.379,-0.113l-0.375,-0.113l-0.371,-0.115l-0.367,-0.115l-0.363,-0.116l-0.358,-0.116l-0.355,-0.118l-0.351,-0.118l-0.347,-0.119l-0.343,-0.119l-0.339,-0.121l-0.335,-0.121l-0.331,-0.122l-0.328,-0.122l-0.323,-0.124l-0.319,-0.124l-0.316,-0.125l-0.311,-0.125l-0.308,-0.127l-0.303,-0.127l-0.3,-0.128l-0.296,-0.128l-0.292,-0.13l-0.288,-0.13l-0.285,-0.131l-0.28,-0.131l-0.277,-0.133l-0.273,-0.133l-0.268,-0.134l-0.266,-0.134l-0.261,-0.136l-0.257,-0.136l-0.254,-0.137l-0.25,-0.138l-0.246,-0.138l-0.242,-0.139l-0.238,-0.14l-0.235,-0.141l-0.231,-0.142l-0.227,-0.142l-0.223,-0.143l-0.219,-0.144l-0.216,-0.144l-0.212,-0.145l-0.208,-0.146l-0.205,-0.147l-0.201,-0.148l-0.197,-0.148l-0.193,-0.149l-0.19,-0.15l-0.186,-0.151l-0.182,-0.151l-0.178,-0.152l-0.088,-0.076l-0.087,-0.077l-0.086,-0.077l-0.085,-0.077l-0.085,-0.077l-0.083,-0.077l-0.082,-0.078l-0.082,-0.077l-0.08,-0.078l-0.08,-0.078l-0.079,-0.079l-0.077,-0.078l-0.077,-0.079l-0.076,-0.079l-0.075,-0.079l-0.074,-0.079l-0.074,-0.079l-0.072,-0.08l-0.071,-0.08l-0.071,-0.08l-0.069,-0.08l-0.069,-0.08l-0.068,-0.081l-0.067,-0.081l-0.066,-0.081l-0.065,-0.081l-0.064,-0.081l-0.063,-0.082l-0.063,-0.081l-0.061,-0.082l-0.061,-0.082l-0.059,-0.083l-0.059,-0.082l-0.058,-0.083l-0.057,-0.083l-0.056,-0.083l-0.055,-0.083l-0.055,-0.083l-0.053,-0.084l-0.053,-0.084l-0.051,-0.084l-0.051,-0.084l-0.05,-0.085l-0.049,-0.084l-0.048,-0.085l-0.047,-0.085l-0.046,-0.085l-0.046,-0.086l-0.044,-0.085l-0.044,-0.086l-0.043,-0.086l-0.041,-0.086l-0.041,-0.087l-0.041,-0.086l-0.039,-0.087l-0.038,-0.087l-0.038,-0.087l-0.036,-0.087l-0.036,-0.088l-0.035,-0.087l-0.034,-0.088l-0.033,-0.088l-0.032,-0.089l-0.031,-0.088l-0.031,-0.089l-0.029,-0.089l-0.029,-0.089l-0.028,-0.089l-0.027,-0.09l-0.026,-0.089l-0.025,-0.09l-0.025,-0.09l-0.023,-0.09l-0.023,-0.091l-0.022,-0.09l-0.02,-0.091l-0.02,-0.091l-0.02,-0.091l-0.018,-0.092l-0.017,-0.091l-0.017,-0.092l-0.016,-0.092l-0.015,-0.092l-0.014,-0.093l-0.013,-0.092l-0.012,-0.093l-0.012,-0.093l-0.01,-0.093l-0.01,-0.094l-0.009,-0.093l-0.008,-0.094l-0.007,-0.094l-0.006,-0.094l-0.006,-0.094l-0.005,-0.095l-0.003,-0.095l-0.003,-0.094l-0.002,-0.096l-0.002,-0.095l0,-0.095l0.001,-0.074l0.001,-0.073l0.003,-0.073l0.004,-0.073l0.005,-0.073l0.007,-0.073l0.007,-0.072l0.009,-0.073l0.01,-0.072l0.01,-0.072l0.012,-0.071l0.013,-0.072l0.015,-0.072l0.015,-0.071l0.017,-0.071l0.017,-0.071l0.019,-0.071l0.02,-0.07l0.021,-0.071l0.022,-0.07l0.023,-0.07l0.025,-0.07l0.025,-0.07l0.027,-0.07l0.027,-0.069l0.029,-0.07l0.03,-0.069l0.031,-0.069l0.032,-0.069l0.033,-0.068l0.035,-0.069l0.035,-0.068l0.036,-0.068l0.038,-0.068l0.039,-0.068l0.04,-0.068l0.04,-0.067l0.042,-0.068l0.043,-0.067l0.045,-0.067l0.045,-0.067l0.046,-0.066l0.047,-0.067l0.049,-0.066l0.049,-0.066l0.051,-0.066l0.052,-0.066l0.053,-0.066l0.053,-0.065l0.055,-0.066l0.056,-0.065l0.057,-0.065l0.058,-0.065l0.06,-0.065l0.06,-0.064l0.061,-0.065l0.062,-0.064l0.064,-0.064l0.064,-0.064l0.066,-0.064l0.066,-0.063l0.068,-0.064l0.069,-0.063l0.069,-0.063l0.071,-0.063l0.072,-0.063l0.073,-0.063l0.074,-0.062l0.075,-0.062l0.076,-0.063l0.077,-0.062l0.078,-0.061l0.079,-0.062l0.08,-0.062l0.163,-0.122l0.167,-0.122l0.172,-0.121l0.175,-0.121l0.18,-0.12l0.184,-0.12l0.187,-0.118l0.192,-0.118l0.196,-0.118l0.2,-0.117l0.203,-0.116l0.208,-0.116l0.212,-0.115l0.215,-0.114l0.22,-0.114l0.224,-0.113l0.227,-0.112l0.231,-0.112l0.235,-0.112l0.239,-0.11l0.243,-0.11l0.247,-0.11l0.251,-0.109l0.254,-0.108l0.258,-0.107l0.262,-0.107l0.266,-0.107l0.27,-0.105l0.273,-0.106l0.277,-0.104l0.281,-0.104l0.285,-0.103l0.288,-0.103l0.292,-0.102l0.295,-0.102l0.3,-0.1l0.302,-0.101l0.307,-0.099l0.31,-0.1l0.314,-0.098l0.317,-0.098l0.321,-0.097l0.325,-0.097l0.328,-0.096l0.332,-0.096l0.335,-0.095l0.339,-0.094l0.342,-0.094l0.346,-0.093l0.349,-0.092l0.353,-0.092l0.356,-0.092l0.36,-0.091l0.363,-0.09l0.366,-0.089l0.37,-0.089l0.373,-0.089l0.377,-0.088l0.38,-0.087l0.383,-0.087l0.387,-0.086l0.39,-0.086l0.393,-0.085l0.397,-0.084l0.4,-0.084l0.403,-0.083l0.407,-0.083l0.41,-0.082l0.413,-0.082l0.416,-0.081l0.419,-0.08l0.423,-0.08l0.426,-0.079l0.429,-0.079l0.432,-0.078l0.435,-0.078l0.439,-0.077l0.441,-0.076l0.445,-0.076l0.448,-0.076l0.451,-0.075l0.454,-0.074l0.457,-0.074l0.46,-0.073l0.463,-0.072l0.466,-0.072l0.469,-0.072l0.472,-0.071l0.475,-0.07l0.479,-0.07l0.481,-0.069l0,-79.232l0.029,0l0.011,-0.34l0.012,-0.34l0.015,-0.339l0.017,-0.34l0.018,-0.339l0.02,-0.339l0.022,-0.338l0.024,-0.339l0.026,-0.338l0.028,-0.337l0.03,-0.338l0.032,-0.337l0.033,-0.337l0.036,-0.337l0.038,-0.336l0.039,-0.336l0.042,-0.335l0.043,-0.336l0.046,-0.335l0.048,-0.334l0.049,-0.334l0.052,-0.334l0.054,-0.333l0.056,-0.333l0.058,-0.333l0.06,-0.332l0.062,-0.331l0.065,-0.332l0.066,-0.33l0.069,-0.331l0.071,-0.33l0.073,-0.329l0.075,-0.329l0.077,-0.328l0.08,-0.328l0.081,-0.327l0.085,-0.327l0.086,-0.327l0.088,-0.325l0.091,-0.326l0.093,-0.324l0.096,-0.324l0.097,-0.324l0.1,-0.323l0.103,-0.322l0.104,-0.322l0.107,-0.321l0.11,-0.321l0.112,-0.32l0.114,-0.319l0.116,-0.319l0.119,-0.318l0.122,-0.317l0.123,-0.317l0.127,-0.316l0.128,-0.315l0.132,-0.315l0.133,-0.313l0.136,-0.314l0.139,-0.312l0.141,-0.312l0.144,-0.311l0.146,-0.31l0.149,-0.31l0.152,-0.308l0.153,-0.308l0.157,-0.307l0.159,-0.307l0.162,-0.305l0.164,-0.305l0.167,-0.304l0.17,-0.303l0.172,-0.303l0.175,-0.301l0.178,-0.301l0.18,-0.299l0.183,-0.299l0.186,-0.298l0.189,-0.297l0.191,-0.296l0.194,-0.296l0.197,-0.294l0.199,-0.293l0.202,-0.293l0.206,-0.291l0.208,-0.291l0.21,-0.29l0.214,-0.288l0.216,-0.288l0.22,-0.287l0.222,-0.286l0.225,-0.284l0.228,-0.284l0.231,-0.283l0.233,-0.281l0.237,-0.281l0.24,-0.28l0.242,-0.278l0.246,-0.278l0.248,-0.276l0.252,-0.275l0.254,-0.274l0.258,-0.274l0.26,-0.272l0.264,-0.27l0.267,-0.27l0.269,-0.269l0.273,-0.267l0.276,-0.267l0.279,-0.265l0.282,-0.264l0.285,-0.263l0.288,-0.261l0.292,-0.261l0.294,-0.259l0.298,-0.258l0.15,-0.128l0.151,-0.129l0.152,-0.128l0.152,-0.127l0.153,-0.127l0.154,-0.128l0.155,-0.126l0.156,-0.127l0.156,-0.126l0.158,-0.125l0.158,-0.126l0.159,-0.125l0.159,-0.125l0.161,-0.124l0.161,-0.124l0.162,-0.124l0.163,-0.124l0.164,-0.123l0.165,-0.123l0.165,-0.122l0.166,-0.122l0.168,-0.122l0.167,-0.122l0.169,-0.121l0.17,-0.121l0.17,-0.121l0.171,-0.12l0.172,-0.12l0.173,-0.119l0.174,-0.119l0.175,-0.119l0.175,-0.119l0.176,-0.118l0.177,-0.118l0.178,-0.117l0.179,-0.117l0.18,-0.117l0.18,-0.117l0.181,-0.116l0.183,-0.116l0.183,-0.115l0.184,-0.115l0.184,-0.115l0.186,-0.114l0.186,-0.114l0.188,-0.114l0.188,-0.113l0.189,-0.113l0.19,-0.113l0.191,-0.112l0.191,-0.112l0.193,-0.111l0.387,-0.222l0.391,-0.221l0.395,-0.219l0.398,-0.217l0.402,-0.216l0.405,-0.215l0.409,-0.213l0.412,-0.211l0.416,-0.21l0.42,-0.209l0.423,-0.206l0.426,-0.206l0.431,-0.204l0.434,-0.202l0.437,-0.201l0.442,-0.199l0.445,-0.197l0.448,-0.196l0.452,-0.194l0.456,-0.193l0.46,-0.191l0.464,-0.189l0.467,-0.188l0.471,-0.186l0.475,-0.185l0.478,-0.182l0.482,-0.182l0.487,-0.179l0.489,-0.178l0.494,-0.176l0.498,-0.174l0.501,-0.173l0.505,-0.17l0.51,-0.169l0.513,-0.168l0.516,-0.165l0.521,-0.164l0.525,-0.162l0.529,-0.16l0.532,-0.159l0.537,-0.157l0.54,-0.154l0.545,-0.153l0.548,-0.152l0.553,-0.149l0.556,-0.147l0.561,-0.146l0.565,-0.144l0.568,-0.142l0.573,-0.14l0.577,-0.138l0.58,-0.136l0.585,-0.135l0.589,-0.132l0.594,-0.13l0.597,-0.129l0.601,-0.127l0.606,-0.124l0.61,-0.123l0.613,-0.121l0.619,-0.119l0.622,-0.116l0.626,-0.115l0.631,-0.113l0.635,-0.111l0.639,-0.108l0.644,-0.107l0.648,-0.105l0.652,-0.102l0.656,-0.101l0.661,-0.098l0.664,-0.097l0.67,-0.094l0.673,-0.092l0.678,-0.09l0.683,-0.088l0.686,-0.086l0.692,-0.084l0.695,-0.082l0.7,-0.079l0.704,-0.078l0.709,-0.075l0.713,-0.073l0.718,-0.071l0.722,-0.068l0.727,-0.067l0.731,-0.064l0.736,-0.062l0.74,-0.06l0.744,-0.057l0.75,-0.056l0.753,-0.053l0.759,-0.05l0.763,-0.049l0.767,-0.046l0.772,-0.044l0.777,-0.042l0.781,-0.039l0.786,-0.037l0.791,-0.035l0.795,-0.032l0.8,-0.031l0.805,-0.027l0.809,-0.026l0.814,-0.023l0.819,-0.02l0.824,-0.018l0.828,-0.016l0.833,-0.014l0.838,-0.011l0.842,-0.008l0.848,-0.007l0.852,-0.003l0.857,-0.002l0.774,0.001Zm-1.536,32l-0.76,0.004l-0.754,0.005l-0.748,0.008l-0.744,0.01l-0.737,0.012l-0.733,0.014l-0.726,0.016l-0.722,0.018l-0.715,0.02l-0.711,0.023l-0.705,0.024l-0.699,0.026l-0.694,0.028l-0.689,0.031l-0.683,0.032l-0.677,0.034l-0.673,0.036l-0.666,0.038l-0.662,0.04l-0.656,0.042l-0.651,0.043l-0.645,0.046l-0.64,0.047l-0.634,0.049l-0.629,0.051l-0.624,0.052l-0.618,0.055l-0.613,0.056l-0.608,0.057l-0.602,0.06l-0.597,0.061l-0.592,0.063l-0.586,0.064l-0.581,0.066l-0.576,0.068l-0.57,0.069l-0.565,0.07l-0.56,0.073l-0.555,0.073l-0.549,0.076l-0.544,0.076l-0.538,0.078l-0.534,0.08l-0.528,0.081l-0.523,0.082l-0.518,0.084l-0.512,0.085l-0.508,0.086l-0.502,0.088l-0.497,0.088l-0.491,0.091l-0.487,0.091l-0.481,0.092l-0.477,0.094l-0.471,0.095l-0.465,0.096l-0.461,0.097l-0.456,0.098l-0.45,0.099l-0.446,0.1l-0.44,0.101l-0.436,0.102l-0.43,0.103l-0.425,0.104l-0.42,0.105l-0.415,0.106l-0.41,0.106l-0.405,0.108l-0.4,0.108l-0.395,0.109l-0.391,0.109l-0.385,0.111l-0.38,0.111l-0.375,0.111l-0.371,0.113l-0.365,0.113l-0.361,0.113l-0.356,0.114l-0.351,0.115l-0.346,0.115l-0.342,0.115l-0.336,0.116l-0.332,0.116l-0.327,0.117l-0.323,0.117l-0.317,0.117l-0.314,0.117l-0.308,0.118l-0.303,0.118l-0.3,0.119l-0.295,0.118l-0.289,0.118l-0.286,0.119l-0.281,0.119l-0.276,0.119l-0.273,0.118l-0.267,0.119l-0.263,0.119l-0.259,0.119l-0.255,0.118l-0.251,0.119l-0.245,0.118l-0.242,0.118l-0.237,0.118l-0.234,0.118l-0.23,0.118l-0.224,0.117l-0.222,0.117l-0.217,0.117l-0.213,0.117l-0.209,0.115l-0.205,0.116l-0.225,0.129l-0.076,0.044l-0.098,0.057l-0.097,0.058l-0.097,0.057l-0.095,0.056l-0.095,0.057l-0.093,0.057l-0.094,0.057l-0.091,0.057l-0.091,0.056l-0.09,0.056l-0.088,0.056l-0.088,0.056l-0.087,0.056l-0.087,0.056l-0.086,0.055l-0.085,0.056l-0.084,0.056l-0.082,0.054l-0.082,0.055l-0.081,0.055l-0.079,0.054l-0.081,0.055l-0.079,0.055l-0.077,0.054l-0.077,0.054l-0.077,0.054l-0.075,0.054l-0.074,0.053l-0.073,0.053l-0.075,0.054l-0.072,0.054l-0.07,0.051l-0.071,0.053l-0.07,0.053l-0.07,0.053l-0.068,0.052l-0.067,0.051l-0.067,0.053l-0.067,0.052l-0.065,0.051l-0.064,0.051l-0.064,0.051l-0.064,0.052l-0.062,0.05l-0.063,0.052l-0.061,0.05l-0.06,0.049l-0.06,0.051l-0.06,0.05l-0.058,0.05l-0.034,0.029l-0.137,0.119l-0.111,0.098l-0.109,0.097l-0.107,0.097l-0.104,0.095l-0.101,0.095l-0.099,0.094l-0.097,0.094l-0.096,0.094l-0.092,0.092l-0.091,0.092l-0.089,0.091l-0.087,0.091l-0.084,0.089l-0.083,0.089l-0.082,0.09l-0.079,0.088l-0.077,0.088l-0.077,0.087l-0.074,0.086l-0.073,0.087l-0.072,0.087l-0.068,0.084l-0.07,0.086l-0.067,0.085l-0.065,0.084l-0.064,0.084l-0.064,0.084l-0.061,0.084l-0.061,0.083l-0.06,0.084l-0.058,0.083l-0.058,0.084l-0.056,0.082l-0.055,0.082l-0.055,0.084l-0.054,0.083l-0.052,0.082l-0.052,0.084l-0.052,0.084l-0.049,0.082l-0.05,0.084l-0.049,0.084l-0.048,0.085l-0.047,0.084l-0.046,0.084l-0.046,0.085l-0.046,0.086l-0.044,0.086l-0.044,0.086l-0.044,0.087l-0.043,0.088l-0.042,0.088l-0.042,0.089l-0.041,0.09l-0.041,0.09l-0.041,0.092l-0.039,0.09l-0.04,0.092l-0.039,0.094l-0.038,0.095l-0.038,0.094l-0.038,0.096l-0.037,0.097l-0.036,0.097l-0.037,0.1l-0.035,0.1l-0.036,0.101l-0.034,0.102l-0.035,0.103l-0.033,0.104l-0.034,0.105l-0.034,0.109l-0.032,0.107l-0.032,0.109l-0.032,0.111l-0.031,0.111l-0.03,0.112l-0.031,0.115l-0.03,0.117l-0.029,0.117l-0.028,0.117l-0.028,0.119l-0.028,0.122l-0.027,0.123l-0.027,0.124l-0.026,0.126l-0.026,0.126l-0.025,0.128l-0.024,0.129l-0.024,0.131l-0.023,0.134l-0.022,0.134l-0.022,0.137l-0.022,0.136l-0.02,0.138l-0.02,0.141l-0.019,0.141l-0.019,0.144l-0.018,0.145l-0.017,0.146l-0.017,0.147l-0.016,0.15l-0.015,0.149l-0.014,0.153l-0.014,0.155l-0.012,0.156l-0.012,0.155l-0.012,0.158l-0.01,0.161l-0.01,0.162l-0.009,0.162l-0.008,0.163l-0.007,0.167l-0.006,0.168l-0.008,0.255l-0.012,0.102l0,78.091l-0.316,3.972l0.461,0.035l0.678,0.05l0.683,0.05l0.689,0.049l0.693,0.048l0.698,0.048l0.703,0.047l0.709,0.047l0.713,0.046l0.719,0.045l0.723,0.045l0.729,0.044l0.734,0.043l0.738,0.043l0.744,0.042l0.749,0.042l0.753,0.041l0.759,0.04l0.764,0.04l0.769,0.039l0.774,0.038l0.779,0.038l0.784,0.037l0.79,0.036l0.794,0.036l0.799,0.035l0.804,0.034l0.81,0.034l0.814,0.033l0.819,0.033l0.825,0.032l0.829,0.031l0.835,0.03l0.84,0.03l0.844,0.029l0.85,0.029l0.855,0.028l0.86,0.027l0.865,0.026l0.87,0.026l0.875,0.026l0.88,0.024l0.885,0.024l0.891,0.023l0.895,0.023l0.9,0.022l0.906,0.021l0.911,0.02l0.915,0.02l0.921,0.019l0.926,0.019l0.931,0.018l0.936,0.017l0.941,0.016l0.946,0.016l0.952,0.015l0.956,0.015l0.962,0.014l0.966,0.013l0.972,0.012l0.977,0.012l0.976,0.011l1.985,0.02l2,0.018l2.021,0.015l2.041,0.012l2.062,0.009l2.086,0.007l1.052,0.002l1.05,0.002l1.045,0l1.039,0l1.034,-0.001l1.029,-0.002l1.023,-0.003l1.018,-0.003l1.013,-0.005l1.007,-0.005l1.002,-0.007l0.997,-0.007l0.991,-0.007l0.986,-0.009l0.981,-0.01l0.975,-0.01l0.97,-0.011l0.965,-0.012l0.96,-0.013l0.954,-0.014l0.948,-0.014l0.944,-0.016l0.938,-0.016l0.933,-0.017l0.928,-0.017l0.922,-0.019l0.917,-0.019l0.912,-0.021l0.907,-0.021l0.901,-0.021l0.896,-0.023l0.891,-0.023l0.885,-0.024l0.881,-0.025l0.874,-0.026l0.87,-0.027l0.865,-0.027l0.859,-0.028l0.854,-0.029l0.849,-0.03l0.844,-0.03l0.838,-0.031l0.833,-0.032l0.828,-0.033l0.823,-0.033l0.817,-0.034l0.812,-0.035l0.807,-0.036l0.802,-0.037l0.797,-0.037l0.791,-0.038l0.786,-0.039l0.781,-0.039l0.776,-0.04l0.771,-0.041l0.766,-0.042l0.759,-0.042l0.755,-0.043l0.75,-0.044l0.745,-0.045l0.739,-0.045l0.734,-0.046l0.73,-0.047l0.723,-0.047l0.719,-0.048l0.714,-0.049l0.708,-0.049l0.703,-0.05l0.698,-0.051l0.693,-0.051l0.687,-0.053l0.683,-0.052l0.617,-0.049l-0.319,-4.014l0,-77.787l-0.009,-0.066l-0.01,-0.228l-0.006,-0.113l-0.006,-0.111l-0.007,-0.112l-0.008,-0.11l-0.009,-0.109l-0.009,-0.108l-0.011,-0.11l-0.011,-0.108l-0.011,-0.106l-0.012,-0.106l-0.013,-0.106l-0.014,-0.105l-0.015,-0.104l-0.015,-0.105l-0.016,-0.104l-0.016,-0.102l-0.017,-0.102l-0.018,-0.102l-0.019,-0.102l-0.019,-0.101l-0.02,-0.098l-0.021,-0.101l-0.021,-0.1l-0.022,-0.099l-0.023,-0.099l-0.023,-0.097l-0.024,-0.098l-0.025,-0.099l-0.026,-0.096l-0.026,-0.096l-0.027,-0.098l-0.027,-0.096l-0.028,-0.095l-0.03,-0.097l-0.029,-0.096l-0.031,-0.094l-0.031,-0.095l-0.032,-0.096l-0.033,-0.095l-0.033,-0.093l-0.034,-0.095l-0.036,-0.096l-0.036,-0.095l-0.036,-0.094l-0.037,-0.093l-0.039,-0.095l-0.039,-0.094l-0.039,-0.094l-0.042,-0.096l-0.042,-0.094l-0.042,-0.094l-0.044,-0.095l-0.045,-0.095l-0.045,-0.095l-0.046,-0.095l-0.048,-0.096l-0.048,-0.095l-0.05,-0.095l-0.05,-0.096l-0.052,-0.097l-0.053,-0.096l-0.054,-0.097l-0.055,-0.097l-0.057,-0.098l-0.057,-0.098l-0.058,-0.097l-0.06,-0.098l-0.061,-0.1l-0.063,-0.099l-0.063,-0.1l-0.065,-0.1l-0.067,-0.1l-0.068,-0.101l-0.068,-0.101l-0.072,-0.102l-0.072,-0.103l-0.073,-0.102l-0.075,-0.103l-0.077,-0.105l-0.079,-0.104l-0.08,-0.105l-0.081,-0.105l-0.083,-0.105l-0.085,-0.107l-0.087,-0.107l-0.089,-0.107l-0.09,-0.109l-0.092,-0.108l-0.094,-0.109l-0.095,-0.109l-0.098,-0.111l-0.1,-0.111l-0.102,-0.111l-0.104,-0.112l-0.106,-0.113l-0.107,-0.113l-0.11,-0.113l-0.112,-0.115l-0.115,-0.115l-0.116,-0.115l-0.118,-0.115l-0.122,-0.117l-0.123,-0.117l-0.125,-0.118l-0.128,-0.118l-0.13,-0.118l-0.134,-0.12l-0.135,-0.119l-0.137,-0.12l-0.14,-0.121l-0.143,-0.121l-0.145,-0.121l-0.148,-0.122l-0.15,-0.123l-0.154,-0.123l-0.155,-0.123l-0.159,-0.124l-0.161,-0.124l-0.164,-0.125l-0.167,-0.125l-0.169,-0.125l-0.173,-0.126l-0.175,-0.126l-0.179,-0.126l-0.18,-0.127l-0.184,-0.127l-0.188,-0.127l-0.189,-0.128l-0.193,-0.127l-0.197,-0.129l-0.199,-0.128l-0.202,-0.128l-0.205,-0.129l-0.209,-0.129l-0.212,-0.129l-0.214,-0.128l-0.218,-0.13l-0.222,-0.129l-0.224,-0.129l-0.227,-0.13l-0.232,-0.129l-0.234,-0.13l-0.238,-0.129l-0.241,-0.13l-0.244,-0.129l-0.248,-0.129l-0.251,-0.129l-0.255,-0.129l-0.257,-0.129l-0.262,-0.129l-0.265,-0.129l-0.268,-0.128l-0.272,-0.128l-0.276,-0.128l-0.279,-0.128l-0.282,-0.127l-0.286,-0.127l-0.29,-0.127l-0.294,-0.127l-0.296,-0.126l-0.301,-0.126l-0.304,-0.125l-0.308,-0.125l-0.311,-0.124l-0.316,-0.125l-0.318,-0.123l-0.322,-0.123l-0.327,-0.122l-0.33,-0.122l-0.334,-0.122l-0.337,-0.12l-0.341,-0.12l-0.345,-0.12l-0.349,-0.119l-0.352,-0.118l-0.356,-0.117l-0.361,-0.117l-0.364,-0.116l-0.367,-0.115l-0.372,-0.114l-0.375,-0.114l-0.379,-0.112l-0.383,-0.112l-0.387,-0.111l-0.391,-0.11l-0.395,-0.109l-0.398,-0.108l-0.403,-0.108l-0.406,-0.106l-0.41,-0.105l-0.415,-0.104l-0.418,-0.104l-0.422,-0.102l-0.426,-0.101l-0.43,-0.1l-0.433,-0.099l-0.438,-0.097l-0.442,-0.097l-0.446,-0.095l-0.449,-0.094l-0.454,-0.093l-0.457,-0.092l-0.462,-0.09l-0.465,-0.089l-0.47,-0.088l-0.473,-0.087l-0.478,-0.085l-0.481,-0.084l-0.486,-0.082l-0.489,-0.081l-0.494,-0.08l-0.497,-0.078l-0.502,-0.077l-0.505,-0.076l-0.51,-0.073l-0.514,-0.073l-0.517,-0.071l-0.522,-0.069l-0.525,-0.068l-0.53,-0.066l-0.534,-0.064l-0.538,-0.063l-0.542,-0.062l-0.546,-0.059l-0.55,-0.059l-0.553,-0.056l-0.559,-0.055l-0.562,-0.053l-0.566,-0.051l-0.57,-0.05l-0.574,-0.047l-0.579,-0.046l-0.582,-0.045l-0.587,-0.042l-0.59,-0.041l-0.595,-0.038l-0.599,-0.037l-0.603,-0.035l-0.607,-0.033l-0.611,-0.032l-0.615,-0.029l-0.619,-0.028l-0.623,-0.025l-0.627,-0.024l-0.632,-0.021l-0.635,-0.02l-0.64,-0.017l-0.644,-0.016l-0.648,-0.013l-0.652,-0.012l-0.656,-0.009l-0.66,-0.007l-0.664,-0.006l-0.668,-0.003l-0.675,-0.001l-0.763,0.001Z" style="fill:#a3a3a3;"/></g><g id="Bowler"><path d="M127.952,172.253c70.644,0 127.68,5.015 127.999,18.433c0.361,15.187 -35.507,24.556 -127.999,24.318c-91.082,-0.234 -128.003,-8.003 -127.999,-24.318c0.004,-13.422 57.355,-18.433 127.999,-18.433Z"/><path d="M127.952,41.959c67.675,-0.007 94.861,28.015 94.861,57.776c0,29.76 -42.506,53.921 -94.861,53.921c-52.355,0 -94.861,-24.161 -94.861,-53.921c0,-29.761 19.897,-57.767 94.861,-57.776Z"/><rect x="33.091" y="97.793" width="189.722" height="81.462"/></g></svg>