<?xml version="1.0" encoding="UTF-8" standalone="no"?><!DOCTYPE svg PUBLIC "-//W3C//DTD SVG 1.1//EN" "http://www.w3.org/Graphics/SVG/1.1/DTD/svg11.dtd"><svg width="100%" height="100%" viewBox="0 0 256 256" version="1.1" xmlns="http://www.w3.org/2000/svg" xmlns:xlink="http://www.w3.org/1999/xlink" xml:space="preserve" xmlns:serif="http://www.serif.com/" style="fill-rule:evenodd;clip-rule:evenodd;stroke-linejoin:round;stroke-miterlimit:2;"><path id="Bowler-Red" serif:id="Bowler Red" d="M289.167,97.834c0.863,-29.025 21.5,-55.826 94.832,-55.834c66.201,-0.007 93.658,26.808 94.822,55.834l0.039,0l0,79.251c20.481,2.946 32.988,7.378 33.137,13.641c0.361,15.188 -35.507,24.556 -127.998,24.319c-91.083,-0.234 -128.003,-8.003 -127.999,-24.319c0.002,-6.278 12.55,-10.715 33.138,-13.661l0,-79.231l0.029,0Z" style="fill:#b00000;"/><path id="Bowler" d="M33.12,97.834c0.864,-29.025 21.501,-55.826 94.832,-55.834c66.201,-0.007 93.658,26.808 94.822,55.834l0.039,0l0,79.251c20.481,2.946 32.989,7.378 33.138,13.641c0.361,15.188 -35.507,24.556 -127.999,24.319c-91.082,-0.234 -128.003,-8.003 -127.999,-24.319c0.002,-6.278 12.551,-10.715 33.138,-13.661l0,-79.231l0.029,0Z"/><g id="Firefox"></g></svg>